<mxfile host="65bd71144e">
    <diagram name="Pagina-1" id="Mhf0n5V9UgJyZlZzU5L8">
        <mxGraphModel dx="964" dy="515" grid="1" gridSize="10" guides="1" tooltips="1" connect="1" arrows="1" fold="1" page="1" pageScale="1" pageWidth="827" pageHeight="1169" math="0" shadow="0">
            <root>
                <mxCell id="0"/>
                <mxCell id="1" parent="0"/>
                <mxCell id="78" value="" style="rounded=0;whiteSpace=wrap;html=1;fillColor=none;dashed=1;dashPattern=12 12;" vertex="1" parent="1">
                    <mxGeometry x="83.08" y="1020" width="466.92" height="150" as="geometry"/>
                </mxCell>
                <mxCell id="13" value="" style="edgeStyle=none;html=1;" parent="1" source="5" target="ld41Ez5lII9NyQaGPqyX-4" edge="1">
                    <mxGeometry relative="1" as="geometry"/>
                </mxCell>
                <mxCell id="5" value="" style="rounded=0;whiteSpace=wrap;html=1;fillColor=none;" parent="1" vertex="1">
                    <mxGeometry x="255.45" y="20" width="300" height="250" as="geometry"/>
                </mxCell>
                <mxCell id="14" style="edgeStyle=none;html=1;entryX=0.5;entryY=0.5;entryDx=0;entryDy=-15;entryPerimeter=0;" parent="1" source="ld41Ez5lII9NyQaGPqyX-4" target="17" edge="1">
                    <mxGeometry relative="1" as="geometry">
                        <mxPoint x="322.25" y="480" as="targetPoint"/>
                    </mxGeometry>
                </mxCell>
                <mxCell id="ld41Ez5lII9NyQaGPqyX-4" value="" style="shape=image;verticalLabelPosition=bottom;labelBackgroundColor=default;verticalAlign=top;aspect=fixed;imageAspect=0;image=data:image/png,iVBORw0KGgoAAAANSUhEUgAAAwgAAAFXCAYAAAAGQmkcAAAACXBIWXMAAAsTAAALEwEAmpwYAAAgAElEQVR4nOzdd5ycZ3nu8d/9zswWrVayuiVblix35IowprpQY8CUJDK9SDIxAeJwCDWhnGAI7XASIBTH1sqYhGJxgNBsMEayMRgTy92S3Ius3rV9Z+a9zx8zO9pd7Uq70sw878xe389nLGk8M8+1O1ue+30aiIiIiIiIiIiIiIiIiIiIiIiIiIiIiIiIiIiIiIiIiIiIiIiIiIiIiIiIiIiIiIiIiIiIiIiIiIiIiIiIiIiIiIiIiIiIiIiIiIiIiIiIiIiIiIiIiIiIiIiIiIiIiIiIiIiIiIiIiIiIiIiIiIiIiIiIiIiIiIiIiIiIiIiIiIiIiIiIiIiIiIiIiIiIiIiIiIiIiIiIiIiIiIiIiIiIiIiIiIiIiIiIiIiIiIiIiIiIiIiIiIiIiIiIiIiIiIiIiIiIiIiIiIiIiIiIiIiIiIiIiIiIiIiIiIiIiIiIiIiIiIiIiIiIiIiIiIiIiIiIiIiIiIiIiIiIiIiIiIiIiIiIiIiIiIiIiIiIiIiIiIiIiIiIiIiIiIiISA2w0AFERMYLb2MuRqq6jRLZUh6vapsiVeAraCLHbNJ41RrNYUxmo11KX9XaFAkgHTqAiMg4cjsRs6raYp40uhgk9chYRIrbiMhVrc0UaTo5B7inam2KBKACQUSkelLFDruIHKk8hkHVv6fyKril/kWhA4iIiIiISHKoQBARERERkRIVCCIiIiIiUqICQURERERESlQgiIiIiIhIiQoEEREREREpUYEgIiIiIiIlKhBERERERKREBYKIiIiIiJSoQBARERERkRIVCCIiIiIiUqICQURERERESlQgiIiIiIhIiQoEEREREREpUYEgIiIiIiIlKhBERERERKREBYKIiIiIiJSoQBARERERkRIVCCIiIiIiUqICQURERERESlQgiIiIiIhIiQoEEREREREpUYEgIiIiIiIlKhBERERERKREBYKIiIiIiJSoQBARERERkRIVCCIiIiIiUqICQURERERESlQgiIiIiIhIiQoEEREREREpUYEgIiIiIiIlKhBERERERKREBYKIiIiIiJSoQBARERERkRIVCCIiIiIiUqICQURERERESlQgiIiIiIhIiQoEEREREREpUYEgIiIiIiIlKhBERERERKREBYKIiIiIiJSoQBARERERkRIVCCIiIiIiUqICQURERERESlQgiIiIiIhIiQoEEREREREpUYEgIiIiIiIlKhBERERERKREBYKIiIiIiJSoQBARERERkRIVCCIiIiIiUqICQURERERESlQgiIiIiIhIiQoEEREREREpUYEgIiIiIiIlKhBERERERKREBYKIiIiIiJSoQBARERERkRIVCCIiIiIiUqICQURERERESlQgiIiIiIhIiQoEEREREREpUYEgIiIiIiIlKhBERERERKREBYKIiIiIiJSoQBARERERkRIVCCIiIiIiUqICQURERERESlQgiIiIiIhIiQoEEREREREpUYEgIiIiIiIlKhBERERERKREBYKIiIiIiJSoQBARERERkRIVCCIiIiIiUqICQURERERESlQgiIiIiIhIiQoEEREREREpUYEgIiIiIiIlKhBERERERKREBYKIiIiIiJSoQBARERERkRIVCCIiIiIiUqICQURERERESlQgiIiIiIhIiQoEEREREREpUYEgIiIiIiIlKhBERERERKQkHTqA1C7fxATSTMJoJcdk8s1pLDcfbC7xhDmkstPwlGE4+YZuiGKsN4fbDiy9GevcjLMd6+4hzT5a6KCFfWb0hP7Y6oE7KTqYQpYJ9DGJbHoC0eRWvHM2tM7FemfhlsEtVXqSpXJ4316MbeDPEGe2QnsPqdw+GunA6LBp7Av4YYlUjP8nk8jTCrQQM4E8DUTMxGjGORYj3v9g8jjbSLET2EOOLhroJM8+W8KeYB+E1DV3jGuZjNMKtBLRTMxEnOlETAea9j8Yx9hMTBewC+giTTfQSYp2e5t+lsvIVCDIqPkuJhPzOrKpV+OTTyfXMpHelgnETRPIMwEM3IDizW34FzIHijdzSOVictbJvmwP6e5O39C5h9TeP9HUt5op/NyMrup9lLXNd/JKsryA7LS/4OkJU8k1t8KERrAW8mQKD4o49PsDEO//e4ouenq7SWV7/Kn2vaT3PURD1400cLNN5rGKf2AiFeDXcCLGa3AuwDiNXlqACRQ6WU1ExVH2/m8JH/ICBqWSweglRzdOl7fRCdyPcSPOT20p26vw4Uid8muYivEGjFfSxplAK8YEnGZiGoHC1+LQr0+K9+3/UZ8npo+YbnJ0+XJ6MO7HuA3nRlvK2mp8PFIbRughyHjnTjO7OJ6eptNh4uvJp19HrmUC2aMgbqDUuR/2J9KRGNBxjbKQ2QeZju3QdwOkfkrztrVM40kzesvccM3x3cyjo/F4aPoLPPUq8kedQXYS5IsXkGykXs2RGPD+mEO6HdIdkOq+Ac/9nNTuP9HK0zaJnWVstG54G5uBo6vdri3Vz3q/nma6WECeRThvIOJ1VO934EacH+P8iDyP2OVsrlK7dc2X8yKM31e94Zhn22XcXamX9xUcDZyE81fAm4GZlWpraNM4NwI/AO4ix+N2uS7QjVfj/peGDObbOYe48XN0TzuH/JTJ5Bqb8RSF5SrlLgbGlAwsD+m4k2j3Ppo2r6ap70s2hXsChqo630EreT5O96w3kZ02FW+aTBwBKcK+PxTen5RnoWMPTVsfZsLer9lUrg8bKllUIFSfr+Ak4NM4F+JMx4pXXMPZAzwEfNqW8uvAWWpavRUIvpxXA/8EnIIxtdyvP7Yw9GLsBm4j5uN2GY8GzSNVN25/ach+vp1n0zvxL6D5Y/ROb6VvcuF/WHzwJwZTvIqdaYfUrq1kuv6Vhr032kzuDZ2sEnwPx9M+5fl44wfITTyXvqmFaUJJf39SfdCwEzLty4l2/SeN3G1T2Rs6XUgqEKrDlzMHeBnwQYyzQuc5iO3AZ8jzS3s3T5TjBb2NvwGuwsmW4/VGxUhj/Ist4RNVa5P6KBD8GuYRcQnwSao3UjB2zgNEfImI39k72Rg6jlSe1iCMY76DvyU75dPsmjsFGhoKc9NJcMezX3F6U64Fci2z6Iu/QFfvP/szO7YyYfOVNpVrQicsB9/DIjqOuoZdx5xItmliYSSnKNHvUfH9idPQMwt6Zi4jPXcJfXt3+9Ynf0ieD9scDVtL+fl/Mok+riPFS8kzMXSeUZgBfJ2If/E2bmIib7ZL6TvC1yz8oLDimqPqSR36IdLPr2I6Kb6LcT6FdS/JZpyOcx052r2NX9PI39hb2R06llSOtjkdZ3wrC3xjwyf8mZn72HX2N9lz6iy8aX9xUIs8gri5kfZ5x7F90dX+9LE7fMPkD/tu5oeONla+g1bfmLnUn5lzFzsW3kn7qWfT1zK4OKg5BrnGiO5Z09j9vPfSc0KnPz2jzXfwnNDJpD74dzjZ2/gqfewFXlcjxcF+Rivwl3TQ6yv4vK+ovZ9dMjp+Hcf5Cr5Ehu1E/AVWA8XBQIWv1b+ml13extf9O5wcOpJURg33CmUs3En5Fn5G54kP0nHmlXTMbyVuKMwbrxcWg6ega840uk76ErtOXOebm693r42RMt/GR+ia+wQdC39Ax7HnkGtJ+EjBWDkQQ9806Jq/hL2n3+4bjnrE9/Ds0Mmkdvlyvk+O+4ArQmcpC+djRNzvbfxz6ChSXt7GF8jyKM6HQ2cpk/eT4wFvY3noIFJ+KhBqRHHSxoi3EZ+3ndm+qfkzPDU3x55zL6FvWlNNjxaMlkeQndbE3jMX8+TxWX+m9Z+9I3nzO93J+Cbe5k/N3ciec75I15xpeMM4mC9ukJ2QpuPUE9nxrDW+4aiVvl2Fgoyer+BNvoJdGG9KwMLj8iqMgHzK23jMl3NR6DhyZLyNl/k1PAR8NMDUr8oqfDxLfQW7fAVvCh1Hymcc9BRr2qACwMBWFt6zqPhn/6EDBxQQAL6dT9Az50naF36SntmMvFFyvSpuw9o7AzpO/RQ75z3jW/lQ6FT9fAfnsvHoZ2g/+zq6Z88hzjC+3h8KIyS5idB50l/TftqffUvm1+511tmTsvJrmOrX8BDO93GmhM5TYQswbvY2fuw+vhaa1wtfwY+AG4nqfCqOMwXne97G3X49zaHjyJFTgZBgA7qKBtj1B44UGIsH32fgbOd8f3rqfew+60o6jqvt9QVlY9B9dIY9z/6yPzXrf3w7Lw6VxHdxnG+Y8l32nPZn2ufPHB8jBodi0DcpxZ5nv4INc3f6M42X18rUMKkeX867iNhc952twQx4AytY69fywtBhZHR8BS/25WwsnmVQy4vIxsKAs+mgy9t4W+gwcmTUc0yu0qhB/78XA4uB1YW/F0YPVpZGEczAfYv9jD2nr6brxDOIG+tsDvuRcvA0dM97DnvOvNU3N3yv6gm2cwV7TnyKzhPfRq5V788gxRGfrtktdJz5bTbMXO+bmB46lYTnjvkKfo2xAmgInSeQUzFWe1udrLWoY97GF3BuxZgTOktA3/U2VoUOIYdPBUJCDTkDN1oNtmYR0ZpFRDMhWjvgZhCziUv8qZkb2fucS8i3hIpdO/LNsPfsN/vTx27wbVxc6eZ8Hyf5hhk/Z/c5X6VvOjqC5FAMOhecQM8J231T08dGflDhNmBq3cCb1AG/loWs4H6cV4TOElyeNPBVb+MHvoKm0HFkMF9Oa3FK0UdDZ0mIC72NB7TTUW1SgZBgBra6+B61LsKa1xRuDRdjEyCaAFEDWLyRa+g6/ad0z5+Dj7d1Boer+DnqmnMse8/+lW+xb1WspW28gp0L7qXz+NcU1hlo1GBUrLjjUfsZn/eNE5/0fUyDQett+t/FQYVB//2HWsAvyeff4Uxi7gIWhs6SMG8EHtdc7+Twq5iN8VhxSpHst5A8a/1aXho6iIyNCoQEGqlT03Bx4f70DdhOyB9zLyee+MxRv7POs5eR06jBYcs3wN5z3uNPzFztezmxXC/rjvkzE77Ovmf9mt4Z+kV+uNxg3+nz2DnvEd/GX1qh/1+aejewHB5QMAy8T0VCDfI2LiPPvYzfKUUH58ymgw3ept2/QvM2LiDNAxQOvpMDpYi5yZezLHQQGT0VCAkzXGdmNdC8oHB/w8WF4uDs9bwkM/XoNXSc/ALiBjRqcIQ8Db3zL2DXvPt8y5FfrXSngS2TH6Vj4fvJTUTvzxGyGHpnTWHPGT/yzelPW2EYpvC9sriwWH/l4kGL9gdNM1KRUFu8jY8AV4fOUQOmAWt0dTYcX8HLgd9gTA2dJeEM42pfwQdDB5HRUYFQA1oXYawsjBw8cwP5s37I86PNqe/S19FQOOhMfZ+y6Z3dTOcpD/jm6PLDfQnfyXN5eu5m9py2QO9NmcXNRvvC/+0bjvrR1t/QvBqiNY8TrV6JzViJrXmcaDVE7C8WVCTUiP5tPH0Fnwe+GDhObTFu9DbeGDrGeOMreDvOb9Ao12gZzle8jStDB5FDU4GQYP3XnJvXFH5x7oT8i3/KhalpjbeQS8+In+qOab07j2UDpqw3MeQmQRQfVmfSd/IG9p50B91zpmqHogqJG6HzpL+adeqUe+fPI928Bjv2YlIzIWpeg7UuKhYKKwcVCSoOEs4M92v4Bs5Ii9JlJIXFyz/w5bwD0yKnisuQ9zbejHNd6Cg16hPexj+FDiEHpwIhYWzIXJQLF+Pdi/CF0HfODY3viSY23gTgDuTSUfwQRuPavEYSymjSQ3fYLL491qf51uiD7H7Wj+mdhqYUVZpB10knzL9l7mMn3smCvhvwSZBquHj/Yv7iyNuBZ4dIInkbnyDivaFz1LhrcF4bOkTdy/P3QNW3ya4zn1WRkGwqEBJoaJHwnDVk87/mw9bA16BQHPQfn0xfJoofz5pGEsqkaUcW3/eSsT7Nt/A59p71FXITdbZBNfXMntMwc86aE1ZxHEDTDft394LC+h0YXBVoqlHyeBtvBk07OGJGBnhV6BjjwNLQAerEZ30Fbw8dQoanAiHhbCX5/O/4uGUav4Tvrxxi2D9xIpeO4rVEND6okYQj1bjhKzaHrrE8xTelPkf7Wf9YWCwuVdd13ITG+fPum/VnFmQgSoM1QTR5JlHrosI0I1+saUZJ5St4PboaKzI+Odf5co16JZEKhAQziP13fDCKGv8FA6LCcclDbwDEGYsfyxmt92gk4bAYtD7ZabOzHx/Ls3wzX6T9nH8k34imFYXikN/VnN5hv1sH+dBpZPT8ao7F+UnoHCIS1I98OaeHDiGDqUBIKAP3VXyAqPErA+8kKtws4sAzY/PpKF7rEU39IwkyaukOSG97wVie4luij9JxxkdwfRsFlVtPvK4Hz2dmXvAzuzP1D7SkFmHpGwrfGSuLN1AJlyR+NbOIuDt0DhEJrDA17hd+vXaDShL1bBLKb+G1WOO/jvmJccbiR/tHEnIVSFaPDBo3r2Qm94/2Gb6Nd9K+8AvkJ1QymBxKah3xY10QF1buOJmFR18Q/eS2NZS++BcXb6DtjBIlYgXG9NAxRCQBjHl0cGfoGLKfCoQE8ls5H1I/HdibMRvQubHBNxva69FIwuh5BE0bnJZd7zYb3QVm384iuk64ulAc6Jp0KJ59iPjBnsJJywPvj9Iv+uuf2Y/Si7H2NcU3aCVO8c3SOxaeL+crGBeHziEiiXKGt/GJ0CGkQAVCwvhNTCZO3QzpAy90juXSZ/9IwsR7NZJwMOkuaNp0iU1l72ge7rs4jq65d9I9I6OuZkDFkQP34b8pPMpcMudt/O1FkCsWB5IQfi0vxfhfoXOISCJd6ddwTugQogIhUfwOJpFJ3YOl04Puh8EjBv3/Y7hRhKEjCevjiGaNJAzLI2je8kdmccMhH1o85ZX2o39F1xxtZRqM4bmHyA8zcjDwe8EMLNPwlfwveZcx6OAoH7qNsFSZ810000tERhLxK1/BUaFjjHfpQz9EqqbH/i+Wnj/0bjMKXZqBU44oHpbG4PtgQO/HgXzG4kdyFp1yb57OM1O43vICg4bdMGHb39goTh41w31L40/Ye+xCTP3LIAyI1hKv6wFs/w5eBzkrOcpEX/NfxLfyGp6oWk4ZkV/DT3Bmh85xGJwUneTpAjqAuzDW4WzGeAovXmxzHGMSMJeYecBZpFiA0wC0AE3BPgKpPU4WoxPowdmKcT/wCMZmYAte/HVf+HMGxkyM03DOBo7GacaYCKSCfQyH52jgs8D7QwcZz9RbTAi/lU/iDctGfMDA3v/QgmDAfUMfWigS0lH8UNajkx7I031GCq+1nxUVEPVB02P/YFN5cDQP9y3R+9j3rNdrx6JQDO9bT/xoLyMVB4PW5/T/PU63ksndZMQnVD2yDOLLuQjjdaFzjImziYjrgJtwniLNFnsHnWN+me8wjRyzgQUYlwBvplAwiAzn58D/Ax7E2UQrW+3SsW3h7FeRIWIWaY7FeT7Gm3CeW5m4FeC8z5dzgy3jl6GjjFca5k0Av42zIPVn8ulDb/HVXwz4/n/7gL8P/NOdwZMpUrk4OiVyOs8Y5yMJBo3bHiL9xDk2l+5DPdo3M4O++ZvonjmeP2nhmEO0nvwDxWlFQxfm9xcI/bXbgBpu/zkhff9lr+JtVcs8Am9jM4WrY1VlS8P/rPflrMc4JXSOQzJ249xOxKfsXaypVDO+nItwrsQ4E6O1Uu1UjfEFW8KYzpE5Ur6cF2H8vpptVoTRjfMEzpdtGddWqhm/mlmk+CzwBmBapdopG2MzXZxs76MjdJTxSJdDkyAfXT+q4gD2FwcDOkfDTrUYaXejh/IREx4Yx2sSDNLt0PLEB0ZVHDgRuWlr6J6l4iAENzz7MPkHegcXB/0Osgan/3EOeNTwVr+R51cttwziK/g/NVAc5DHeQ44zbSmvrmRxAGDLWGWX8SKMhcB7gb5KticJZXwZeLYtZWEliwMAezdbbSnvxjgR469wtlayvSPmzKaJy0LHGK+CX1Ua7/zWxq/h/N3Yn8jguUQDRxIY4f7+P1O5ODo55XSdPv5GEsxh4gM/sGO63zyah/vGxv/NvrM/rXUHAQwcORiwOn/oVr92sKKYAf9O5frYFbfapeE6YuNxBMFXMB9nHcmdf98J/NCWMvIUzyrxFVwDvAWnOXSWMdMIwug5WSJ+QxdvCn113Nu4EufvEz2K1cBkexv7QscYbzSCEJDfwml47j2H9eQRrqLaMJ2jA+7Lp6P44VxEy/0VGEmwwu5Ao7lVvc9ikNq7naj7itE82rcyi97j6qw4GOv7E6hf6VFh5ODB/SMHMLg4KH29Rxy6OADIpxuYzHdKO1JJtbyf5BYHdxBzdhKKAwBbwmWkOBX4degsUiHOOiIW2RJeE7o4ALClfJIcpwA/Cp1lRH18P3SE8WicXT5OmtR3IJ05opcYMt0IH7BEYcBaBevf27G/r5vPWPxQzqKT7s/TfbgjCcUGoizQ51h+Bw3d+6BvD+mebuhcR6avAyNLzDbAiW0m+SkLiG0e+ZaJeMtR5KKp0NBEnKbQ26tQhzzKwqSHv2wz2T6qx/dNuo3e6dTudKz+L4hc8WPI7qChax/07SXq2k6q70nSXY8wcBtQZzJxy/FkMwuwia30Nk8lbpiMZVrxNIUF7hUumMwhepB4fc+BxUHxL0OnFA1bHAwnFV3KDfGVwNoyp5Zh+FVMx/mH0DkOkCJHzL/bkuSdx2Dv4GngL7yNj2N8siZHE2Q4eeA6W8bS0EGGssvZDCz25XwM49MkraA3LvLlnGLLeCh0lPFEBUIgfisfw9PnHvELDVyTMGSHo+F2NxpcJKSj+OGsR6fcH9N1ZjTq3Y08glQvNOyEhl2/Ipe7jnTPvaTYTZ52m0PXQZ4M7Cr8zXdmaGcS3Uymr2ku0YS3k21eRnYa5CYUOorl7Iw2PvYHm8mXR/NQ3xy9g30nnViTxYFHhYKgcTtEu35LOv4+1v5H0uwhpt2OPtQuLIX/7b4nYg+TcCbRmZ6FNV5KNPEddE2ZSfao8r8/xeyeX0f88ICRgyE7FJWKgeL454jFwXD35dMRUe63EM8pb3AZVoaVoSMMK88FtpQ/ho5xMLaUz/s1/JSI1cDM0HnkCBkvsyWsDh3jYGwZX/Dl/KI4bSs55xAUtmv9FPDW0FHGEw21B+CrmE6UfhhSUyrTAAeuSRjYlxu4yxEAOY9OTju9C6ORRxKssDVopnM3qa3307z3WzaDH1QgPb6b82mf9EHys88l2zyHuJEj7oim9/Qw4eFTbA5PjyrDhmOeovOY446s0WqywkhBprOL1N51tGxuYxrfMiv/5X7fybPINlxB73Evo7flhML7UwYWgxUPQRtmzcGgUYPRrDk4aFt9H7VX8KXyBB+98bQGwVdwEjH3YEyodtsH8SRZzrXL2RE6yGj5Co4i5o8Yp4XOclBagzCSDWR5do19zR2NczswP3SWQdLMK46wSRVoDUIIkb2/YsUBDL8mYZjO1f4OVtrix7JGy33xgVfMiy8w8bF9NK1dStPDp9hxey+oVHEAYFO41Y7b93qOemghLU+8nImPPF3Idbh9HIOJT1w36uJgG/9G1+waKg4iaNwKrWuvZNL6kzhu87k2nW9WojgAsGmstaP73kPzo2cz8d5FTFz3O1LdHNEZER7h+UfIr9t/zkGp728UtjAdOHJwJMUBANEVfj2j2zlMDtc7E1YcbMQ5s5Y6agC2hD1kOBeSPeIhw3oaZ2ENfs1twTiHmIdDZxkkx7+HjjCeaAShygqjB42jmwM/5hcv/nmw3Y0GjCT4gPUKhafk3E5OOz0LIzxTGDFo2LWJxqe+abP5XPHppeUM1eQ7WUbn3I/SM+2kMY8otDy93eZuGdUQve/kWNoXPEXPjCjAhzk2FkOqfR8Tnvg+s/v+zoxsqCi+k+fROf3r9M5+zv7pYaNkMfAw+bXdw29lGh04enBkxUH/46s/ijCuRhDaiEnO75j1ZDnTLg/3PVIO3safgPNC5xiWRhCGepClnGkD13jVGL+eZvZxDxEnh84CgLOLDKfZO9gWOsp4oBGEaovsmoq9dn+nyQf/2+zADlb//T7o/6XNH88azfc5DTsgc/9HeOapU5nNvzhEoYoDAJvGcuZuOIOJ972FCZviUV+tznTFNGwZ/emtXTPeS8+0hBcHxelek9ZfT+NDx9ucvveELA4AbBp/Yu6O59Fy/4tpeWTXqJ/oER4/Qn79/mlFg0a9+ouDASMIZSkOALzhi74qQfNs64i38QmSUhyk6KCB82q9OACgm5ehBfbJ57ST5bm1XBwA2KV0k+eFxfMSwv9SNKaS4/WhY4wXKhCqyG9lLkQvqXhDNuTvw/17aGerVFxkzNfHN2XTj51ux+e+zIvoJiG/6M3otTnx95m6YQ4TH76FqI+DRzNofGqVzeL20by+Oxm86UMJ+XBH4NC4ZTNT73mrze54o81l9J3xCjMjb3O4zY7bNY3WdW007osP+rm0GGwt8UNdB/4aHfo1O/S+csnyTxV41XHNr6cB5/LQOYBCR62Hk+tlD/XitpgXAnsCR5GRFE7inm+XH2yzjtpRnB71MjwxB/ldGTrAeKECoZpiezekwxxGYqPrX3lf7zueekX8uj8cx0OrCrtcJe4KiE1kK8fueimT7nk3DbtGmPtu0LQJjml/5ahfeBtfpWv2kW07W0mWg0n33UrzUyfZdL4XOs5wirPWzI5pX0b02HNp2twz7O5YngJ/hPjh4lamjDzSNexI2EBHUjhE0dt8lXZzK6tOTiFd/WlUwzLeWdzCsW7YUrYT8SJ08nIyGYvtsuRcuCkHW8YDGK/EE9EfmOnLeXXoEOOBCoQq8TvJYA2frH7DDO5owfAdsCi3OdfVuyj1F3x35yLyABcuPuC85v4OYHBm5O1orqH1kWfTtGXLAbEsCw0b32rGqPYp9b1MpWf+soR8eIO5QboTWu//F5vTe8GhtykNp3+Gm0Nk87JrOtufnjRzKL0AACAASURBVE/zo3cX1hn0PygGe7A0cjDiFLiI0uLkoecelBo70rcrnz6aPt5xhK8iA8W8iXwiiq7P21J+EjpEJdi7eBDji6FzyAE+au/i5tAhKsGWcgvGVaFzAGC8N3SE8UAFQrV08vkg7VpxkfKAA9MGdsgKf+Y27L4/f+ofLuE+X0xq0QLiCxfjrBy0OSrFJQvh5yEOYDO4m6OePI2JjzxTutNT0PTM48yOfzjqF+psehU90xsS9uEVNO6C1gdfZnOyiZ8OM/Czd/1iUv9zBju3rtz+YlrW3QRx4b2xh4kfHbCVaf8agwE3q8Sag5Gkom+V8dUEPhA6AHA/Hfxz6BCVZEv4FMatoXNIyR1k+dfQISrJlvJe4K7QOXDO9BVaP1ZpKhCqwO9kAlEq3MKag3am+v5kd+dPufn3dBZHDMb29ASwKezhmF3H07xhDVA4wG3KtotHO3oAQH7ah45om86KMGjamWXiI6+0WbV3VWox0LoIe+YH9Nmxna/w5gdXYA8SP9zNoP1tRvoCq9YXXj7d4L/mjVVqra55GxckYmtT4x12Bb2hY1RcirdjdIeOIYDx9rpYCH8oKd6MB/7eMo4F5gfNMA4krUdUnzqZR5w+IVTz1v+fobNwLPuAXeTP54P0Ll5ZHDEYeCvOFvHSLPHkMiNn8zY/h6kPbKLpmU/ZpNHv3+y7OJ3eSWdVMt9had6WJ/PYGTaT34SOciSa12CPXEzjY/O6/zZ+uPeKQSMHw0x7K41uUYXRg36xvcU98bVw8hl/FzoC8Albwj2hQ1RD8dCoZEz7GM+M99kSHgkdoxrsnTxMxPdD5wDeHzpAvVOBUBWpT4dOUFKcI+SWe5y98QsGHIUw3K3/KZDIuTcHspldx9DY9W9jelJP05fITq5QosNhkG6HxifeYsfwUOg0h8ltJd6+Bt8G8YnbiNNgqdf2ft3ivi+UprlFQKq43mDgfVZce17uNQcjydjLuUEHpx0Jv4oJxDwnaAhjM918NWiGKrMl/C9gZ+gc49iTQFvoENVkS1iCszdoCGdZ0PbHARUIFVbYISWdqOkLZmBR/nn2OtpHWlPQv97AhhQLtcCm0z7ax3oHs+ia+8IxHexVaakuaF33Njua60NHORIDP6NrgBz4IxfTeNdr+RSp3M2lnYnggBGF0v39Kn1tP59uJpV5Z4VbqW+NzAZmBM3gfL24Fej4YlpoH4zxf20JPaFjVF0UfqGwt/GC0BnqmQqESkvAN9EgnstB7/n2YkqnOSdt4XFV7eV0aJmYqE9B01P/ZbP4r9AxDsfQhewXLsYvXFwYSdi7iHjvNuLJEEUXxy8nyt3X/6REsPynQkeoac6zAq8/2GNLA20GEVoXt2L1tZ1rTXB22BK+HjpGEBl+QeiRK+Mvg7Zf51QgVJA7EUTJ+gK2+Fq74MCj6QeOGIyrgiE+6o3kMsn4PvAIJj3RzrH73h46SpmU1rP0FwkAexcR37mIdC4Xv4PmfN/Qcw5saMFQrQLC08f4b3lWlVqrPzF/HbR9G79TDux9dODjtKMaknFZ6AihFA8f/FrgGOf69Qxz0I6UQzI6RvVqNZNI2amhY+zna+0Cf3foFMnS/ObEXMJu3pmncft5ZnVVoO0fTYB40YLC7fEFxA2XcK9Z/iPWYAecc+AM/nfV5HUAz2EzXhuw9e1E3BKw/eBsKZ/Hx8EuOsmxBRv3X3OfIUUuWABnPu0J2DWtTqlAqKxjyadnhQ4BQCrXC31hr/AljO/kPHqmTQydo8CgceO3bRrrQicphyGjUM7K4k5YK/ff74tJ2UV8lVR2FRkb9OQDRhGqxs4P1XIt8+8wDQLuS+7cbu/UQl2i4Fd0xw/nz7aEPaFjBBfz78Hado4lQ3Ow9uucCoRKihI05J2Pf24X1Efns2z60u8ml4D6wA0mPNPF0V0fDh2lnIYWCd6/4H0l3r+trkNEPv4YaRhUJITipkVvhyPm5UHbj/hE0PaTIuYHQa/oji9fCB0gEZyVwb7mjIgc5wRpexxQgVBJqdTS0BFKYn9z6AiJk531ytARAEj3QMPGN1odHng0wrqW0la6Bm4v5c9Y9kbSQEPgIsHSU/1GTgwbogY54UZejCdsCfcHaz9JelhPTiMpVbDPlnF76BCJkOUe8kG3PH1JwLbrmgqECvGbOYZ8elLoHABY7wftIl1VGsh3MZfeSa1YHDiJQWb3g8zihsBBKm7oQvhBW+g2xm+EnJMi/EiCkZzCvnaEO2jQ+WawthPG3kcHxh9C5xgHvhE6QFLY5XQRH7jxSRW9ImDbdU0FQqVkeFnoCACkcnuBH4WOkTjdrcdhmdbQMcCh+enlZuRDJwnJzmMfxP8BEL5IiBJ1bknS+fU0EzM9TOPEpGr7pPEK+I/QAeqe1fYZNWWXDrgOAc4O2HZdU4FQKc6FoSMAEMe/t/PZEDpG4sScQj709qYGzZthJmM7+blemV8HucKIQtAiIb3Af66dMUatmwmkCFNsGzvIa///gWwpvw6doa45u4jZFjpGkti7uDlk+341ydgMps6oQKiAwr680YLQOQDIe10tfC2baMLL8MDbJ1seGjd9rs62NT1sdj5/xPYf4Be0SGjInBam4RpktOCEmU7p7LSlA75mpF/IKR/1bjs5fc0N43fBWs5o3VglqECohAU0EtkxoWNA9j67iPWhUyRSzs4LHYFMTxby2pZwIM9/fNC/gxUJ2YUBGq1NThPQEqTtiD8GaTf5xvX+/BUV8ahdrvMmDuCsDtZ2npOCtV3HVCBUQjsNGEeHjoHF3wodIbHi5sAjPAZ0PMisoLs/JI5dQNsBd4YoEowTqttgDYuZGrD1XwVsO8nuCB2gbsUqvoZl3Bes7Yh5wdquYyoQKiHDBPLpMFfU+qVyvUTahm04vo0TyQc+W8UNGvbebkZv2CAJ5NmbDriv2kVCrCHrUYsDFlMxfwrWdpLFbNOpyhUS6WtuWM5GoC9Q63MDtVvXVCBUQq4x3JZ/pQy0A4+HjpFIEecFLxCiLDTv/u+wIRIqioefy1rNIsGj46rTUB0wjg/W9DI2hWo74baS1sWHioi5J3SERDK24oG2U3emBGm3zqlAqISoN3yBQPyovYj20CkSyZlHnAkYwKBhJzZNu40MK3+QX8D9RUKll3VHzKlwC/UkzOfKeSpIu7Ugzx5ijSBUgi3T79VhTWQHFuy8pVZXf7bs9AmtjPALZiLX3NyRZCc8O3QE0p2Pho6QWPEhTsVNUfkTl1PMrmwDdWVykFaNJ4O0WwPscvZqilEFOM+EjpBUdindeKApRkYj6s+WnT6hleAWfovEPAfO45aCuCXwAmWH9J4bw2ZILnspG/Hcwa9EVXokIZ8OPAetpswM0qpGEA5FV7rLzVQgHJTxdJB2nRauV3+23PQJrYgo+BandpEWUo3ILewC8igLrl1GDsriNYd8TIVHEvw3gTq+tcYCnYEAOwK1Wyu2hg5Qh/Q5PbhQ6x5DnapZ11QgVIIHnr/suZ6g7SeYO0bcGPaENMtDPqsC7uBGtxCwkiMJMcdW4FXrTxxsipEKhIMxnTBddk536AgJtyVIq04LnerPlps+oZVg6XTYAGkNg46sCRobscCHFxsq4g7G/KFRP7ZSIwmpYFfGa0u4k8DzgdqtDVqkXH6hptDUCgt0ro9jtGgUodxUINQjy+0KHSGxdpEhjsOOIJDtoSHYbg+1YmzbV1ZiJMETcNihyOHSCEIlqM90MM7O0BGkfPTFXmZ+JyH3zyyKwwzz1QLDEjBdsY+8rn4ewtg7N+UeSXAay/diIlVmxKEjiEjtUoFQbu3Bhtv3M72vI8qQIRd6Chi95FQgHJQdZhVXrXMSRJJPBUK5hZtOJ1J16kjWo1g/xEaUJ0+UD/uLM2URUfhhjLpVjXMSJDwjdKGfbM4JoSPUnZijQkeQYRh5OtXvKTcVCGVmFyVgbrmZfoiNJE+eKA58Zc2bSatzc1B+hL+IyzGScLijGOONB5rr7kwP0m7t0CLlcjPCbpGddKG+J40uWjRiVm4qEOpRrN1XRpQlj6XC/iDJ00wvgRdKJ5xnZh3xaxzpSIIO4hodC3R6KswI1G5t0AhCJWjjgoM50gs7h0/FQQWoQKhHZvNCR0isWXSTzmbDDkamjZQKhIPLnlSWlzmykQStExmdUJsizA3Ubq1QZ7b89Dk9mBRHfmHncBjdXKoiodxUIFRCKhf2tEVLa4rRCMyIyfb1Bt3JyFNgqVPDBagBFp1ettc63JGEiEfLlqG+7QnSqnFckHZrgDuGaReusnMVpQcVc0qQdvN0oVGEslOBUAl53xY6gt/C8aEzJFZjb9grw3EaSJ8fNEPSub2wrK93GCMJ9vIxnsUwXoU6PMr1M25E1zJZi7grwGgNHSHh5gRp1dhnKhDKTgVCRdja0AmAV4QOkFhxLnDHLwXe9LywGZLL72ASpMv/i3gsIwmpnH7ZjFZMsJPb/RtMDNV2ojlTcRpCx6hHfjXHhs6QRP6fTIJA50BF6HDYClCBUAkWPxY6AtjFoRMkVmbvnaEjkGt9WegIidVL+aYXDdU/knBowUcBa0bEumBtT+BFwdpOthkqECokxaLQERIpyyyiQKNWzsYg7dY5FQiVEPsDoSNg0fPd9f4OK8NjWMgLxA59U/DdnBkwRJJV9vMymiIh78GuitegHjzQ8L5T3qlo9cI4Bgt0Nbf+vSB0gERy5hAF+pozHg/Sbp1TB7IS0twVOgIRLdyqbe5G8CCp7rAJci3Qw+vDhkisyv8CPnSRsKHiGepFRBdGR6DWNRI3HOe80BHqVqyidAQLyAdb96ICoQJUIFSCsw3PhT0wLZ9uIWJh0AwJZVO5nVRX4BAOPbNeolGeYcSp6kyPO2iR4E9UJUM9yNKNBysQjvGrmBCo7SS7KHSAupVijl+nA9MOYITbeCPPw8HarmPqnFRCjizh9gbfL2/vCB0hsTI97WEDODD1dHZrV4yB/Pech6WrdxrnSEWC6RfOqE2iAwu01WmKKWS0N/0wzg0doG4504BpoWMkjvPyUE3bZVqkXAkqECphJn0koUCwhjf4g1qoNrzuW0MnINs4jSwXho6RKHH0laq3OVyRYDoDYbTsUvqAnUEazzMRKM+henXCl/Pq0Bnq3CT6mB86RJL4cuYAxwRq/p5A7dY9FQgVYAvpw+Iwe4MPtZMrQ0dIpvhPYRcqA3Ej5Kd/K2yI5PDfs4CUhdn+dWiRkOahIDlq1x3BWnbeEqztJIq4InSEupdCo/MDRXwgYOu/Cdh2XVOBUCnmfwodoSD1Ll+lvcIPEPmfwp+r4tBxzGzfxisDB0kG56/Ip1PB2i8dppbbZxeF29u/Jjm/D9a2qbPWz69iMq5tOCsu1tdcP3cscJH+u4Bt1zUVCJVzc+gAAHh6Jtb44tAxEqdh71Ok4s7QMYiboGfmB7VYGSD1odAJSAFN8U9Dx6g5PWF/SfsKjSIAkOZZwFGhY9Q9I+NtvCZ0jERo40xCrslIc3ewtuucOiUVYucnYKvTfpb7RugIiTOdZ2ho74JRnqxbMQ5901/Bdo4fcq9R2Oto0C1QyIrzW/hHPD0zdA4AjGtCR6g19j46cHYEC+C8L1jbSWK8nUKZK5X3/tABEsF4DdAUqPUNZAm8Z3n9UoFQUX0/C52gIH2838JHQ6dIEjO6SW1Zhyegz51thdzE/x7NQ+uxSPCbmUUq9enQOQBI5WK7IOB0mdr2k4Btn+7XcVzA9pPib0MHGDecRX4dybioEZLxT8HajnmaZSoQKkUFQiWZfzN0hP3SH/XbmRo6RaI0dH6TVF/oFIWxgfaTFvoWlsL+IqB/FGHAjf7766pQSPNh8ulk7LaVjxOydqgmjarIrZBJ5FgcsP3gfDnV3wFsPDOmkxvfO0Z5Gx/CaQ4WIGKNQdgzp+qYCoRKMu4ilQs/zx2A1BSyJOMqbULYDH5IZnfoGAWegd55/+y/oYX+gmAxtnJx4U8WH1gs1EOh4Ks4ERr/IXSOATR6cLiMdTghTyD8PwHbDsr/iynAW0PnGHd8/E5H9OW0Ah8JG4JfBm2/zqlAqKSp7CXnj4SOUeKNV/itvDF0jERJ9fw6dISSnhnHsrD1ewYxizFWYjNWYqv7bxANKRaA2p125KuYSJS6JXSOwVxb5h2uLFuA7SEj+Ar+PWT7wfTwOoxZoWOMO0bkbQGn2IQUcQkwI2QEW6YtTitJBUIFFc9D+G3oHIPEqX/3VTp5tMR6rsPyoVMUeAQdJ7/WN3HF6pXYmkVY65Db6pW1WQwMK+JKSM8JHWMgu0Bb5h0uu5wuPPCOIs7icTkv3LgqdIRx7HK/ismhQ1RdzNWB29ducxWmAqHyErQOAbD0dCz18/5/Dt0lZ7hbyLgV17T7f8h0J2eRk6eg+8QvvvB+ntW+Bp+2htTkmUSTZxa+V0tFwuID1ybUEr+V90NjyMN1htH7b6ET1LxU8J93M+kbX1MpvY1rgWSs4Rmf5pLh70OHqCZv47sYE4KGSPHVoO2PAyoQKswu4Ak8+0DoHIOln+Or7We+//0fOr99uCksNdkRPRSbwSOkN2/CE/St0De9KTN5zr3P+yXHNC4iatlGqukGollrSE9eQzRwJGHAm1Iz74//nhcSpZLXGY/5XOgItc6WcBOpwIsGI97rbZwXNEOV+DWchnFp6BzCP/tyTgkdohp8BWfjgTcEcHbRR8L6VfUnQb2iOpaKPx46Qon3/6XhEm7hiwbOwIWw++e4Q7EwsMJIQs3OdT+k5t3/SKondIr9LIbOuTSdNvM33YvIbF+DpRYVPvdpsOY1helGLMauX1x4f0JHHi2/jbPIp24MemLysPru4EJ2hk5RF/KEP3fF+Y5fRSZ0jIqL+HHQXWRkP+N7fv24OIPixxiNQRM467icXUEzjAMqEKohzR9J5baGjnEAb/yQr+LLrNxfNgz7sGrlOQLumG/iA4dzIrHN4Hqat3VUItdhM4e++Scv+IRt6oI4GlAkDNR/Gacm3qNbOA1Sf8ZoCZ3lAOY/NauJT2PyGdfixIEznEIDnwmaocK8jW8Dp4bOISXPpoMk7chWdr6CH+GDD/UMIuI6I/DPmHFABUIV2PPZRT6+LViAEbo97uA0fshvtm/bSvJrHifqv63u3zGnVq5Ob0lfTedZ/8qm5l8d3gt0fDFR3WyPgEeJ78tMOO9n0S9uhSwURhAaLi68JyuLtwSlHpHfwovx1B8L5x2kk/c11cu3QkeoGykeIfBuRgA4H/MVhbNF6o1fywtx3h06hxzgi97G20KHqARfzltx/ip0DgBbyn+EzjAeqEColsg/FaRdZ38XvzhPyIu3/n9Dw7vjm+2/T/xrJi5ag/dPYSnOcz9gW80k8S20+MbWn7LvnGXkG6HzpFf4Fi4Z8wtN2Pdjot4EnJpG4TPduJ744XaIwUm/5K9/mVrXeClTc+DpGwrvRa2cCuWreBmkbsESutOHxf9hL2dv6Bj1wt5BJxHfD50DAOdrfnUCrniWkV/HTGJuw/T7O5FSfKveTvX2FZyL8Z+hcxSN2/NOqk0/YKrEXsxayFZ/z31jcGHA/n8zuEh47aRzo9v7fsCCbRA3LyjOcx8iSTsb+Q5OJTdnDR2nvA4vRoqbjJ551/uWsU1jsWmspeWRO/DAU0g9Bf4o8QNdENv+9y6fWjDlnNTdc3/MC46H0oKJxSsLH3ki3pBh+K2NXyNqvKkwapDAkQPP5chkk7NGqH4k5XPaQpo19VIk+PU0k+N/QueQg8gzkTz31EuR4G3MxRNy3oDTS8S3Q8cYL1QgVFMcfwhyyZwR4oBlTsnMSj3w4v/mVTMW09C+JpmzV9xJ+UYuoWveg7Qfd8oBOxB1z2nCJ9085hdu6L6MhoDrnsyhcS359e34wKMZit1q7/NpUWvjzflf8+Fj30SDrSQPhfohQNqD8lVM91vTq3D+LnSWg7L4ZzyPPaFj1BtbQg8eeJ/0fs4UUtzk1zA1dJQj4StoooO7oD46nnXNmUKOVTX/NVcoDh4DjgqdBQDjPibwZOgY44UKhGq6kLXg91S8HR/y99Hc+vWkotT8xv+e8bxZf7zwUc4yAm9ZOIRvZzabZqym8+yf0XV0hA2zTsny0H7Ceb4pM6a5oDaDh2nY/f/KlXVMPAU8Sv6BbkqjIcDA/aTM0kbWsVTjl2Y+J/qT/5ZzBizUSkyR4LfwETKpx/DUhaGzHJL5V8y02K0iUlwFJGPaHpyAcVetXtX1q5hQPIROi5JrxwKMe72NuaGDHA6/itk4d2EJ2g3M+axdSkJONq1/KhCqqNARiT9U+YaKfw7oMvqhuo8OZD1n0zMpJpwGnQvOwE6+05+afBVfYq7tn/AShG9llj/T9E+0L9jEvhNeRNzAQePEDdA357vezvQxNdS47V/JdFW3w2gODevIr+ug/0efDTyNImLwHKI+x/KZ00k33uWr+DduDH8ytjuRr+I5vipaD41fJJ+eFDrToWVvtvP5Y+gU9crexRpi1ofOUWLMI8cdfi0nhI4yFn41x5NmEyoOao9xLPDnmvuau4ZzyLAJG+Pvz8p63Jbxs9AhxhMVCFVmF/A76DvMnXbGYMDoQKk4GGaRcmldQtbzNoc0R50A+YbCVfjsUdBz0t+QP+Ue3zjhJ/40c2zw9e3KfxhO2rdkrqL95PvpXPhZ+mYw7KjBgc+EnqNhz8zfuo/+CojN5A80PXV71Q5O6x85eLCw5sBsSHFQ/GTbwEEFozBTLQ9Y49/TlFrrt/Bdv43W6oQezG/lpdya+hNR6s9Emdo4LCiV6yMXvzV0jLpnLAsdYYijMe7xNt4cOshoeBtvJOKBxC7wl9E4mph7a2V3I1/B32HcETrHAWKWhI4w3qhACMI/QCpX3qH3odOK+v869CL70MLBwfKesxmZFM2nQX7ImTseQW7yZPad9XpyJ2z0pyf/yp9Ov8i3MLOs+Qc2uZNJvpGzfeOkq3lyfpY9z/4bclNmFDrTYxnEcOg69iw2NV42pgAt7ZfQuGNMTzks5pApjhzkGHGlcenu/pGE/juyXphgZOmjoPFt5Bv3+S1c67fy3EoXC34bc/z3vN5XRevxxt9C+txELkIeST7/fV7CttAx6p0t4048YVf98kwEvudt/JNfn8xDxvwqJnsbXwd+gDEhdB45Yi3Ad305n/NvMDF0mOH4fzHF2/guztcSNa0ICgejTdLi/GpTgRCAXcAj5OMby/aC/VuZDllXMHTkYGBR0N/PttzAkYNGRuyAWx76pkHXyRfTc8attJ/8gG+cfqdv5+/dy/MDz3fyl/5My29oP34dnaffRfspl9E7c3DgMb9oGnrmfdN3c9Zon2JHsZvM1i8dXoOj5Cmw4siBW3GNQX+A/Tc7yEhCceSHwTMyG99JlLodUuv8ltQP/RZeUbbIv6HFVzf+na+O7iaffoC48Sc1M2IwVBNX6GC0KnE+hxfO8UiYz9LJg34N54QOMpC38ToyrAfeHzqLlJnxjzSz3tt4ZegoA/kK/pJe1kNCRzkiPmiX0h06xnhTO1f86oyvIk0m1UE+Xb4jywcUBD50RGFowUCxOJiRSXHUiZBvYmyd8OJkoygPmd3QsG8v3vNzPH833nQvmb19RLldNGA4ezAMI0WOBnJMItc0AZs0D+85H296LvmJZ5KdXChS7AgKguF4ClqfeJLsltPs+P1bhB70Ke1MZ89xT9AxZ+LopjSNgTmkHiH/QGdhZcfQzv/AAmHg+gM7sEAo/TtjcLAdWi17G+634A1/wHu3k6Ed6MbpJjfok50GmoCJpJlMzAlgLyaKXk6cnndkH3hCWO+77Hy+E6Jpb2MzVH/NiC0N+7Pe27gZeEnIDAdlfBvny7aUx0NF8Gs4h4jPAK8JleGIGF+wJdXd3taX8yKM31ezzTL6MfBJW8raUAH8Gk4jxZVJOQBtWDE32mVcHDrGeKQCISBfzRuwxh+X58Uo9amHFgKDRg6KLOd5O5YUzacWi4MysXyhIXMgV+iMR+nCn3E+IpVK4flG8ul0ocgYugK3QiwPrfd9xuZkPz3ap/gWXkP7wp+TH9ORCod40RSk15Nf17l/WlF/gQD7x/SGFAc24HElQ/99qCKhXyqXB3qBLDmyDLySnvIILEOOBixdxi+MpMjeTUt8nj0nzBXtcVsgXE8DHfSGzHBITjvGTcB7bGn1ToL2FbyEPP+KcVripnaMhQqEw9GDczfOB+wy/lytRv1aFhKzAudMjPJdpCw3pwt4ti3jodBRxiMVCAH5KtKkMn/Co0VjfzLDnpB8wGOGGznIet5mZlKFaUXNUM6r9YllkNkDkx4632aM/heKPzPrv+mY/9qyfI7MIXqU/IMd+5d624BvwujABcqjKgwGGm2RMF5Fvc+zF4dbgDdeCwQAb+MK4Kuhc4zSrzC+jvOgLWVDOV/Yr6OFHKfgnA98AKNORuZUIByhtRS+P26jg8fsivIW1P4dTibmOcDf4zy3nK9dMcZyW8LY1hBK2QT/pTHe+R1Moqdx79iexP41B8V/HzClaOD9A0cO8p7jGNLWfFpxzcF4YtCw9UkmPXmmTad9NM/wnRzLvuM30DNrlLsnjfRCqcKC5Ae7iguLS4kGFwMDRxDGWhz0U5Ewgt4P2AVhO6jjukCANG1sAmaEzjIG+4AdwEqM/2dLDm+hpLexAOPVOIuBZwGtQEMZc4anAqE8jG5i9hFxJzHX4/zCLuOwTvAsrnW4FHglhcPOyjgcXnEbbGltnltSL9KhA4x3dh77fHXvW7DG71W8raznmZlJW/MJh7HmoB44ZKfNp3fbv0DXqE74tWk849ufeDO5id8/YIen0TKHaP2Baw76/zNw7cHAPw9XtlhBqkgYIHsXMd8InWI8M8h5xEXEPBA6yxhMKt4+ivNRbwNgI/AQ8BTGVmJ6MXYAUXHf+AzOLGAucDwU98Afbz9u5fA4zRjNOK/GeDUGxa+7tTiPYuwESTDBOQAAEShJREFUNmDEONswGoAZxDRjzAQW4JyK1fApzk5MxKWhY4x3KhASwC7k+35r/m8OefJs/y+YgTsWMfyag9L9/dOK8nGOufnU/pGDcfrbylPQedL7fce9t9t0RlWU2Qx+4BueehWdp719zJ+3QSMHtn+0oPTiwyxO5ghGD/qpSBgsF7/KXpqsU8HHI3sXD/pyPoXxmdBZjsAxxdvgqZ79/xapjGdhPKv0r6G/9/9/e/ceX3dd33H89fmdk15I0woUaLkocpEWHMIqCkJL6ybqFIH5aGGiYhKwPvTxmE7xoT4mbsNtD9y8oNucDihzilMzN8dEHD7mHa8UHQVGKXKzQq8ITWnak9/5ffdHkjZJk16T/E6S15NHgOT8kvNpzuk5v/fv8730fx6W3i88SBn/Eq38pOwyJjuXOW0QsShfQpY/NuwBfW9E/cJBSgy7lOmAcJCnnNlZJQ45LUZ0QvJ4VUyDbSd8Ij21H5sPHbvl7Ux/+Mn9euWNBJXV1O95tndTs54T/52dg0q/IJD1u31wOBgqLOyL3ZZAnaSyHZfE77G+7DLUq4WPUPBg2WVIakAF90Srm6I1AgNCIynqFw67gVq/CckDgkHv13YLBv07B8fklXjO/CCfLBOS9ybBtsOPpNbcsa/fEcFWpm48g+lP7dsGd6kCTWuoP7CVvgdvcKdgwBCjIfY82HnswZj0ISG/JRbytbKr0C6xjBrTOKtB90aQVJ7tVLi07CLUw4DQQOJ8VlHUlw97wH6e2+/sHDSfFpNvQvLeBGw56RVpPW/b5++YwwamrWmlso09nrkHkPXrHMCA/Qt2CwOj3Q6etCGh+3txfr0xN/6Z5OKNbCHj8rLrkNRAgrdGKw+UXYZ6GBAaTCzin4kdA1eC6L8S0RCdgyF3SC6KnGPqdg72pJgKnS/4SNpEyz4cHQkijuKLzLj33VSG2W+tt3NQrN61lOmAMJAxMBgMN6yIIT4/GJMuJORPkBWXlF2FhhetdBB8rOw6JDWA4E+jlc+XXYZ2MSA0oFjEdZB/eUAw6JX6/tVvSNEQm6DlzI5KNM+3c7A3+ayZbGu5bV8PT0upxFw+wbRHvjDksqfZgxSrtkIxxIn/EEOJhhxWxBCfj4TJEhJS/jRF/fxYyG/LLkV7Fq1cDXy97DoklSi4jVauK7sMDWRAaFBxfv0ystqAN87BG6ENeV5ZFDlH1ysx69QgPwQ7B3sT0DVvYVrPh/Z0VF9jpoPekHDcljfRfN+PenaMpmdH6KlrKNZ0snOCwRCdgyHDwaByRnXI0YQPCXkX1fp5sYSHyq5E+2gGr4ex27lYUkP5abTy2ujZIUgNxIDQoBIE9bQU8p/DoCFEQ33Qr3Mww87BfkkBXSe+L/2G4/bl8A7grgU0rbyoazFTH/5xzz4Hayju3zrwJW5wOOg3vGjIcDBWJmpIqOQFWX1ZnMd9ZZeifRfLqJE4EfhV2bVIGkPBI3Tz2rLL0NAMCI1sCTticf0lZMVKYLcTyv4ji6IocubaOThg22cfQtby0+Fu7jufX9r7ATB9JdFx/OaFadpd9xYPd/YEjcFDhvrva9D7+bDhYCwDw4QLCXk3qb4oFjpcZTyKdjqp8FJ84ZImi400My+Ws6nsQjQ0A0Jji7SUCo90v5LU/T9DdQ2Anh2Sj6ASLXYODlyCZ+bNTU9M/Zs9HJHoIHUAnStJXQtIZ76aava89KLorn0x6D35z3Z9RNYvHPSfoNxfWd2EiRISUp6T6q+PhdxZdik6cHEFm6lzIom1Zdcyjq0D/rHsIia84F0kOssuY9xKrKfgrFjGvi0brlIYEMaDr/N09vLiAvLuO4CBK+AURc7cIouZp9k5OGgBXc9/b9rcu0vqMJZ27Pol124nPQJTstdxeZHXPrqnH92QutM4H/mZd5HqZ8Vi/qvsSnTw4ioeocoZBF1l1zLuJDqZwQkk7im7lEngeyR+F9hSdiHj0DpaeG5cyfAbw6ohGBDGibsWUPnNDcXFFLUb+r4WtVRnNpWYOc/OwUjpngXb5/wiJQZvOT0geS1eSurrImxeQH3Nq5n6g4v5QMprH+xbvWiovQ5iqO5B2WrjtZOQP06lfk4s4ZdlV6KRE1ewmYzjgLvLrmXcSPwQOCaW0UU0xKvKxFYn4koeIngxOOdpP9xNlRfZORgfDAjjyJYO6ne/P72DvPaX1Os7mJPsHIy4BJ3PO4J18RfDH9Az1KgvJHSuJD2zgaJlAVG5mL8u8tqryfK8/8pFOwNDnzInKQ9lvHUSKvlvmFI/M87jf8suRSMvrmBztLGAxF1l1zIO3BztLIx2h7yMtWhlDd28hMTqsmsZB74dbSyIN7Oh7EK0bwwIja53OEvf1WqA7JXpmvSc/Jo47OggH3yhWwcuoLINZt7zceaka4a4deA2db0hYWO/oPAdqFQv4puRF4si8icGT0hO0FjBoL+G7yTkvb///Bam1Z8f5/BUufVotEU7ZwEfKbuOBrY82mhLqWFfVSa8WM422pgPfKrsWhpWcB1tvKLsMrR/qmUXoH3QExJ2vgHct5Qpv3gp1y9Y+1gnh/D3dB1VKbG6iWPa5jrNDy2PI7hpn7+ng7QMSEv7PoUEFS7kp3y2OJnndv+YaDp9VOodDd2pp9XRkJcOqgE7/izO59qyK9HYiTben27iB8BXCRxLCZDYRMbLopU1ABG2kMvU+/t/Z1rBKuCGvR0/aVTIqXNltPK5skvR/mvI0wDttPNFv/9wlq6HSSyAOJbPUH/sZTQ//GDPrr5eRNp/ASSY/vh9TH/ozL2Fg+hZzLTvcUn0bmZNR8/H0t7/AimWs41XpTNItQ8O2P+g0TViJyHyDcSOcw0Hk1O0cxsZZ1C4UhWJG6gyry8cqHFEGzeS+B3ggbJraQC/JHFGtBkOxis7CA0qek48d51O9gxn2fn/34X4DlS/ewJ3L2HTKWndplvpfOGF1A8ppd5xK+tMtKz+Usytv2F/vq1fSOh7jNLgLwDRe2Xpr9IdtdvIsu9Tr7YcbMljolE6CZW8oCi+EYvShSVXopJFKw8A56UVXE+Fd1CfZO9fFXIKrog2vlh2KRpetHMvMD+t4DNUaJ90z1NIJG6Mdt5adiE6OGW//Wvvdu180O/q9OKluz4SZDGH19F876toeXQdUcduwl5EATPWPk7L/Yv3NxwMsvPx6ddd2G23iriAX/JscQzUPn5whY+h0jsJ+Ubq9UsMB+ov2ngXibOBn5Rdyxi6kYLjotVwMF5EG28jsRhYVXYtY2glBWcbDiaGyZZsx5XewS9D6xh4U4KMo7kj2DA3Pbnhy2w/9WJ2NE8xKAwh66ox8/6OmFN/41jebVxEJ/CedEftZsi+Sarucb+FhlBGJ6GS1ymK21mXLo5lDTfYSQ0g3sJK4Jx0E+1k/C2JQ8uuaZSsI/GH0c6Pyy5E+y/ewp3A6WkFHybxPoKmsmsaFYltZFwbrS4oMJHYQWhsadDp/eCr00NdrY6Yy6XMvH8hM1b/iGonJB9mUtazQlHzY9/m0FXnjHU46C8u4F5aipOJ2lVU8sZfXHRMOwndd9JdPzsWpQsNB9qbaOcmEqeQ+BMm1lrPWwjezFaONxyMf9HGNRScQPCxsmsZcYkPAScbDiYeOwiNb3BIgN3bAru9Mcbh/Ay2nJs2blnGtiM/wfZjjyZN0oc76nDIE2s5ZO07Yja3ll0OQJxDF3AjFDemO2qfJ2WXQLW57LqGNdqdhJRvIurvjPMdQqH9E21sBK4Hrk8r+DSJSwkOK7uuA7SZ4O+ileH2YdE4FVexFrg63cTHCb4EnAW7bcg5PiQ6Cb5BN2+K5XSXXY5Gh5eWx6chx7kPJY7gK0zfcAqz7r6MmQ89Q2XH5OgopAyybpj5+AZmrl7GlLXzGiUcDBYX8CaiOJOswecnjEYnIeXrYMfl1OrHT4pwkJhedgkTWbTxdpqYT+JSEveWXc8+S6wmuJxu5o1AOChr2euxHz6TSjqHyQ587G6080S0sYjgdIIPUyEfydJG2aPAVVSZH21cZjiY2BygPsmkjfwx24++mq7DjqWYHhPyKVDtKqhueYzmx66LI/inssvZH+lbzKLOpyF7FVFtzKugTXFwpyCVvKDOOqhfG+fz2RGraxxIK3gjMcYhoWBKtPMPY3qfDSLdzDzgoyReQuJwooEuiiWeIWM1dd4bV/L9EfuxNzKfjMXEmJ54ZtT5RVzJz8bwPkk3Mwe4iLHcB76gQpWOuILNI/Uj0wquJrGcjGMa7iJC4imCVQR/Hq18t+xyNHYm4Nmh9iato5nEiyla3k1t9uvYcVRPHyIafzj80HrXD5q6Caat/zfo/CRzuSuC7WVXdqDSN5kL/D5k1xLV48uuZzcHHBLyL1PUr6eFlfFirz5pbKRbOJQaJ1HwGoI3ACeXVwy3Ap+hYFXvsBOJ9BUqbOEFVFhEop2eIUglFcMmglso+HcqPBitrCutFpXGgDDJpd/yHGp8iu3HvZzazKMppkXPXIVGn+8XPXMLqtvrNG15kqm/vpUj0wci2FJ2ZSMt3cG5JK4lq5xOUZlddj077UtIqOQ7qPME1L9KhWvjPDrHpDZpD9IXmEmNy4DXAqcCMwlmjOjV20Q3wdPAFhI/B/412htzmKMaT/oKU3iWSyn4IzLmUTCLKjNHdF+FRDfQCXSSWEvwn2R0RCuPjth9aNwyIAjo7SoEJ1KfuozuGe8hnz2NWu/KgY3SWeibO9H0DEx7ehPR+UkqW7/GUfwqgq5yixt96Q6OJHESRBs0tZddD7CHkND9IFHcQOI2pvBo76RsqeGkz9JExmFMYRZ1DgXmAacAJ5F4PhmHk5jLcBNKE9sINgFrgTXA/WSspOBJgqdoZVMwrsaZq8GkTzGVZg6nwqEkjiZxOsELKTiJYC5wDMNPeN5OTwjYSPAIiYcIHgRWkdhMhWeYzlOxzNdoDWRA0JDSU5xGzlV0zXkF+WGHUVTnkCpQNNFv8+BRuvd+Pz9yqO4oIDbQtHEDU9d/g+msiJmsGaU7HzfStziPglZiytkU9SOINBuqY/93uqm+nQoboXgC0n9Q8LlYYktakqTxyoCgPUqJYCuH08lsaDqXVH05TH8NtZZZ1Jshb4Y06BJy9AWH4QJE9Lu531MwCqg+C5Vnofrsr4nt34IdtxO1e5jJb6OFjSP7p5sY0neoUnA4iVkUvAxYRMrOg+oojrPO7ySKH5L4b5p4nGBzLOHp0bs/SZI0VgwIOmBpPWfTxAnknMX2llNJTc1k05spKi3kTU1Uqj3Joaj0PM+KqBNFQaVeJ6UdZNu3wrM1smI91adXMZX/A+6PwybV1vSjKt3O8WS8EJhP8FxSPI8iDiWrTCflTWRNVYrugUkuqttJeZ0UNaJ4HFhLxhoS9zOFe2IJW0v5w0iSpDFhQNCISokqG5lGE1Wi958+BQWJREFBJ90cz46Ihp8NPSElyLiLCp1U6Br0GPwB3TGWywZKkiRJkiRJkiRJkiRJkiRJkiRJkiRJkiRJkiRJkiRJkiRJkiRJkiRJkiRJkiRJkiRJkiRJkiRJkiRJkiRJkiRJkiRJkiRJkiRJkiRJkiRJkiRJkiRJkiRJkiRJkiRJkiRJkiRJkiRJkiRJkiRJkiRJkiRJkiRJkiRJkiRJkiRJkiRJkiRJkiRJkiRJkiRJkiRJkiRJkiRJkiRJkiRJkiRJkiRJkiRJkiRJkiRJkiRJkiRJkiRJkiRJkiRJkiRJkiRJkiRJkiRJkiRJkiRJkiRJkiRJkiRJkiRJkiRJkiRJkiRJkiRJkiRJkiRJkiRJkiRJkiRJkiRJkiRJkiRJkiRJkiRJkiRJkiRJkiRJkiRJkiRJkiRJkiRJkiRJkiRJkiRJkiRJkiRJkiae/weLGUGuMwppngAAAABJRU5ErkJggg==;" parent="1" vertex="1">
                    <mxGeometry x="314.62" y="310" width="180.87" height="80" as="geometry"/>
                </mxCell>
                <mxCell id="2" value="" style="dashed=0;outlineConnect=0;html=1;align=center;labelPosition=center;verticalLabelPosition=bottom;verticalAlign=top;shape=mxgraph.weblogos.google_drive" parent="1" vertex="1">
                    <mxGeometry x="375.85" y="30" width="66.4" height="58" as="geometry"/>
                </mxCell>
                <mxCell id="4" value="" style="aspect=fixed;html=1;points=[];align=center;image;fontSize=12;image=img/lib/azure2/general/Folder_Blank.svg;" parent="1" vertex="1">
                    <mxGeometry x="291" y="148" width="69" height="56.00000000000001" as="geometry"/>
                </mxCell>
                <mxCell id="8" value="GEI-Digital" style="text;html=1;strokeColor=none;fillColor=none;align=center;verticalAlign=middle;whiteSpace=wrap;rounded=0;" parent="1" vertex="1">
                    <mxGeometry x="295.5" y="204" width="60" height="30" as="geometry"/>
                </mxCell>
                <mxCell id="11" value="" style="sketch=0;html=1;aspect=fixed;strokeColor=none;shadow=0;align=center;verticalAlign=top;fillColor=#2D9C5E;shape=mxgraph.gcp2.external_data_center" parent="1" vertex="1">
                    <mxGeometry x="460" y="148" width="46.2" height="60" as="geometry"/>
                </mxCell>
                <mxCell id="12" value="Metadata" style="text;html=1;strokeColor=none;fillColor=none;align=center;verticalAlign=middle;whiteSpace=wrap;rounded=0;" parent="1" vertex="1">
                    <mxGeometry x="453.1" y="204" width="60" height="30" as="geometry"/>
                </mxCell>
                <mxCell id="20" value="" style="edgeStyle=none;html=1;" parent="1" source="17" target="19" edge="1">
                    <mxGeometry relative="1" as="geometry"/>
                </mxCell>
                <mxCell id="17" value="Ingest" style="html=1;dashed=0;whitespace=wrap;shape=mxgraph.dfd.start;fillColor=none;" parent="1" vertex="1">
                    <mxGeometry x="365.05" y="420" width="80" height="30" as="geometry"/>
                </mxCell>
                <mxCell id="68" value="" style="edgeStyle=none;html=1;" parent="1" source="19" target="67" edge="1">
                    <mxGeometry relative="1" as="geometry"/>
                </mxCell>
                <mxCell id="19" value="Read Metadata" style="html=1;dashed=0;whitespace=wrap;fillColor=none;" parent="1" vertex="1">
                    <mxGeometry x="362.45" y="500" width="85.2" height="25" as="geometry"/>
                </mxCell>
                <mxCell id="38" value="" style="edgeStyle=none;html=1;" parent="1" source="21" target="37" edge="1">
                    <mxGeometry relative="1" as="geometry"/>
                </mxCell>
                <mxCell id="21" value="Load file" style="whiteSpace=wrap;html=1;fillColor=none;dashed=0;" parent="1" vertex="1">
                    <mxGeometry x="367.85" y="650" width="75.2" height="32.5" as="geometry"/>
                </mxCell>
                <mxCell id="26" value="" style="edgeStyle=none;html=1;entryX=0.5;entryY=0;entryDx=0;entryDy=0;entryPerimeter=0;" parent="1" source="23" target="29" edge="1">
                    <mxGeometry relative="1" as="geometry">
                        <mxPoint x="407.6260555483537" y="840" as="targetPoint"/>
                    </mxGeometry>
                </mxCell>
                <mxCell id="23" value="Split pdf in pages" style="whiteSpace=wrap;html=1;fillColor=none;dashed=0;" parent="1" vertex="1">
                    <mxGeometry x="363.24999999999994" y="770" width="84.4" height="38.29" as="geometry"/>
                </mxCell>
                <mxCell id="34" value="" style="edgeStyle=none;html=1;" parent="1" source="29" target="33" edge="1">
                    <mxGeometry relative="1" as="geometry"/>
                </mxCell>
                <mxCell id="54" value="" style="edgeStyle=none;html=1;" parent="1" source="29" target="53" edge="1">
                    <mxGeometry relative="1" as="geometry"/>
                </mxCell>
                <mxCell id="29" value="&amp;nbsp; Is there any other page?" style="strokeWidth=2;html=1;shape=mxgraph.flowchart.decision;whiteSpace=wrap;fillColor=none;" parent="1" vertex="1">
                    <mxGeometry x="355.33000000000004" y="830" width="102.2" height="110" as="geometry"/>
                </mxCell>
                <mxCell id="42" value="" style="edgeStyle=none;html=1;" parent="1" source="33" target="41" edge="1">
                    <mxGeometry relative="1" as="geometry"/>
                </mxCell>
                <mxCell id="33" value="Assign metadata to page" style="whiteSpace=wrap;html=1;fillColor=none;strokeWidth=2;" parent="1" vertex="1">
                    <mxGeometry x="352.83" y="970" width="107.17" height="40" as="geometry"/>
                </mxCell>
                <mxCell id="35" value="yes" style="text;html=1;align=center;verticalAlign=middle;resizable=0;points=[];autosize=1;strokeColor=none;fillColor=none;" parent="1" vertex="1">
                    <mxGeometry x="408.03" y="930" width="40" height="30" as="geometry"/>
                </mxCell>
                <mxCell id="40" style="edgeStyle=none;html=1;entryX=0.5;entryY=0;entryDx=0;entryDy=0;" parent="1" source="37" target="23" edge="1">
                    <mxGeometry relative="1" as="geometry">
                        <mxPoint x="412.26000000000005" y="770" as="targetPoint"/>
                    </mxGeometry>
                </mxCell>
                <mxCell id="37" value="Get metadata of file" style="whiteSpace=wrap;html=1;fillColor=none;" parent="1" vertex="1">
                    <mxGeometry x="367.22999999999996" y="712.5" width="76.8" height="30" as="geometry"/>
                </mxCell>
                <mxCell id="48" value="" style="edgeStyle=none;html=1;" parent="1" source="41" target="47" edge="1">
                    <mxGeometry relative="1" as="geometry"/>
                </mxCell>
                <mxCell id="41" value="Get summary of page" style="whiteSpace=wrap;html=1;fillColor=none;strokeWidth=2;" parent="1" vertex="1">
                    <mxGeometry x="347.22999999999996" y="1050" width="118.4" height="25" as="geometry"/>
                </mxCell>
                <mxCell id="44" value="" style="edgeStyle=none;html=1;" parent="1" source="43" target="41" edge="1">
                    <mxGeometry relative="1" as="geometry"/>
                </mxCell>
                <mxCell id="43" value="" style="sketch=0;outlineConnect=0;fontColor=#232F3E;gradientColor=none;fillColor=#067F68;strokeColor=none;dashed=0;verticalLabelPosition=bottom;verticalAlign=top;align=center;html=1;fontSize=12;fontStyle=0;aspect=fixed;pointerEvents=1;shape=mxgraph.aws4.sagemaker_model;" parent="1" vertex="1">
                    <mxGeometry x="218.58" y="1033.13" width="58.75" height="58.75" as="geometry"/>
                </mxCell>
                <mxCell id="45" value="OpenAI text-davinci-003" style="text;html=1;align=center;verticalAlign=middle;resizable=0;points=[];autosize=1;strokeColor=none;fillColor=none;" parent="1" vertex="1">
                    <mxGeometry x="74.83" y="1050" width="150" height="30" as="geometry"/>
                </mxCell>
                <mxCell id="49" style="edgeStyle=none;html=1;entryX=1;entryY=0.5;entryDx=0;entryDy=0;entryPerimeter=0;" parent="1" source="47" target="29" edge="1">
                    <mxGeometry relative="1" as="geometry">
                        <Array as="points">
                            <mxPoint x="552.58" y="1130"/>
                            <mxPoint x="552.58" y="1000"/>
                            <mxPoint x="553" y="885"/>
                        </Array>
                    </mxGeometry>
                </mxCell>
                <mxCell id="47" value="Add summary to metadata" style="whiteSpace=wrap;html=1;fillColor=none;strokeWidth=2;" parent="1" vertex="1">
                    <mxGeometry x="345.62999999999994" y="1100" width="120" height="60" as="geometry"/>
                </mxCell>
                <mxCell id="52" value="No" style="text;html=1;align=center;verticalAlign=middle;resizable=0;points=[];autosize=1;strokeColor=none;fillColor=none;" parent="1" vertex="1">
                    <mxGeometry x="318.08" y="840" width="40" height="30" as="geometry"/>
                </mxCell>
                <mxCell id="61" value="" style="edgeStyle=none;html=1;" parent="1" source="53" edge="1">
                    <mxGeometry relative="1" as="geometry">
                        <mxPoint x="152.25" y="885" as="targetPoint"/>
                    </mxGeometry>
                </mxCell>
                <mxCell id="66" style="edgeStyle=none;html=1;entryX=0;entryY=0.5;entryDx=0;entryDy=0;" parent="1" source="53" target="67" edge="1">
                    <mxGeometry relative="1" as="geometry">
                        <Array as="points">
                            <mxPoint x="246" y="584"/>
                        </Array>
                    </mxGeometry>
                </mxCell>
                <mxCell id="53" value="Add pdf to vectorstore" style="whiteSpace=wrap;html=1;fillColor=none;strokeWidth=2;" parent="1" vertex="1">
                    <mxGeometry x="203.85000000000002" y="867.5" width="87.15" height="35" as="geometry"/>
                </mxCell>
                <mxCell id="65" style="edgeStyle=none;html=1;entryX=0.5;entryY=1;entryDx=0;entryDy=0;" parent="1" source="55" target="77" edge="1">
                    <mxGeometry relative="1" as="geometry">
                        <mxPoint x="117.41499999999996" y="907.5" as="targetPoint"/>
                    </mxGeometry>
                </mxCell>
                <mxCell id="55" value="" style="sketch=0;outlineConnect=0;fontColor=#232F3E;gradientColor=none;fillColor=#067F68;strokeColor=none;dashed=0;verticalLabelPosition=bottom;verticalAlign=top;align=center;html=1;fontSize=12;fontStyle=0;aspect=fixed;pointerEvents=1;shape=mxgraph.aws4.sagemaker_model;" parent="1" vertex="1">
                    <mxGeometry x="87.42" y="940" width="60" height="60" as="geometry"/>
                </mxCell>
                <mxCell id="57" value="OpenAI Embedding Model" style="text;html=1;align=center;verticalAlign=middle;resizable=0;points=[];autosize=1;strokeColor=none;fillColor=none;" parent="1" vertex="1">
                    <mxGeometry x="147.42000000000002" y="955" width="160" height="30" as="geometry"/>
                </mxCell>
                <mxCell id="62" value="ChromaDB" style="text;html=1;align=center;verticalAlign=middle;resizable=0;points=[];autosize=1;strokeColor=none;fillColor=none;" parent="1" vertex="1">
                    <mxGeometry x="77.42" y="820" width="80" height="30" as="geometry"/>
                </mxCell>
                <mxCell id="71" style="edgeStyle=none;html=1;" parent="1" source="67" target="21" edge="1">
                    <mxGeometry relative="1" as="geometry"/>
                </mxCell>
                <mxCell id="74" value="" style="edgeStyle=none;html=1;" parent="1" source="67" target="73" edge="1">
                    <mxGeometry relative="1" as="geometry"/>
                </mxCell>
                <mxCell id="67" value="Is there any other file?" style="rhombus;whiteSpace=wrap;html=1;fillColor=none;dashed=0;" parent="1" vertex="1">
                    <mxGeometry x="360.24" y="543.5" width="89.62" height="82" as="geometry"/>
                </mxCell>
                <mxCell id="72" value="Yes" style="text;html=1;align=center;verticalAlign=middle;resizable=0;points=[];autosize=1;strokeColor=none;fillColor=none;" parent="1" vertex="1">
                    <mxGeometry x="404.03" y="620" width="40" height="30" as="geometry"/>
                </mxCell>
                <mxCell id="73" value="END" style="strokeWidth=2;html=1;shape=mxgraph.flowchart.terminator;whiteSpace=wrap;sketch=0;fillColor=none;" parent="1" vertex="1">
                    <mxGeometry x="513.1" y="572" width="53.8" height="25" as="geometry"/>
                </mxCell>
                <mxCell id="75" value="No" style="text;html=1;align=center;verticalAlign=middle;resizable=0;points=[];autosize=1;strokeColor=none;fillColor=none;" parent="1" vertex="1">
                    <mxGeometry x="440" y="555" width="40" height="30" as="geometry"/>
                </mxCell>
                <mxCell id="77" value="" style="shape=datastore;whiteSpace=wrap;html=1;" vertex="1" parent="1">
                    <mxGeometry x="87.41999999999999" y="850" width="60" height="60" as="geometry"/>
                </mxCell>
                <mxCell id="79" value="This part can be extended" style="text;html=1;strokeColor=none;fillColor=none;align=center;verticalAlign=middle;whiteSpace=wrap;rounded=0;" vertex="1" parent="1">
                    <mxGeometry x="60" y="1150" width="186.92" height="30" as="geometry"/>
                </mxCell>
            </root>
        </mxGraphModel>
    </diagram>
</mxfile>